<?xml version="1.0" encoding="utf-8"?>
<!-- Generator: Adobe Illustrator 26.5.0, SVG Export Plug-In . SVG Version: 6.00 Build 0)  -->
<svg version="1.1" xmlns="http://www.w3.org/2000/svg" xmlns:xlink="http://www.w3.org/1999/xlink" x="0px" y="0px"
	 viewBox="0 0 612 612" style="enable-background:new 0 0 612 612;" xml:space="preserve">
<style type="text/css">
	.st0{fill:#429BD6;}
	.st1{fill:#FFFFFF;}
</style>
<g id="Layer_2">
</g>
<g id="Layer_1">
	<g>
		<path class="st0" d="M0.67,105.58h46.82v206.3H0.67V105.58z"/>
		<path class="st0" d="M93.23,308.02v-48.06c14.83,8.65,27.3,12.98,37.4,12.98c5.87,0,10.51-1.62,13.91-4.87
			c3.4-3.25,5.1-7.54,5.1-12.9c0-4.12-1.37-7.98-4.1-11.59c-2.73-3.61-7.44-7.98-14.14-13.14c-16.18-12.36-27.89-23.88-35.16-34.54
			c-7.26-10.66-10.89-22.54-10.89-35.62c0-17.82,5.61-32.35,16.84-43.58c11.23-11.23,25.75-16.84,43.58-16.84
			c13.19,0,26.27,2.83,39.25,8.5v46.21c-13.91-7.62-25.19-11.44-33.84-11.44c-5.77,0-10.33,1.42-13.68,4.25
			c-3.35,2.83-5.02,6.72-5.02,11.67c0,8.65,7.78,18.39,23.33,29.21c9.27,6.39,18.67,15.38,28.2,26.97
			c9.53,11.59,14.29,25.01,14.29,40.26c0,17.82-6.23,32.58-18.7,44.27c-12.47,11.69-28.28,17.54-47.44,17.54
			C119.09,317.29,106.11,314.2,93.23,308.02z"/>
		<path class="st0" d="M246.84,105.58h59.19c8.45,44.51,15.09,82.78,19.93,114.82l5.1-31.99c2.06-12.46,4.27-24.62,6.65-36.47
			l9.12-46.36h60.42l23.49,206.3h-46.36l-12.52-141.86l-28.9,141.86h-31.68l-30.29-142.17l-12.05,142.17h-44.35L246.84,105.58z"/>
		<path class="st0" d="M612,311.89h-48.68l-7.88-34.46h-49.45l-8.19,34.46h-47.75l54.7-206.3h52.54L612,311.89z M546.48,240.34
			c-7.01-30.7-12.26-59.91-15.76-87.62h-0.62c-3.71,28.54-8.91,57.74-15.61,87.62H546.48z"/>
	</g>
	<g>
		<path class="st1" d="M0,331.75h45.35c18.33,0,32.8,4.71,43.42,14.13c10.62,9.42,15.93,22.23,15.93,38.41
			c0,8.31-2.01,16.34-6.04,24.09c-4.03,7.75-9.89,13.6-17.6,17.54l31.09,77.34H71.04l-31.47-78.11h-0.64v78.11H0V331.75z
			 M38.93,364.89v40.72c17.21-0.34,25.82-6.38,25.82-18.11c0-7.96-1.99-13.66-5.97-17.09C54.79,366.99,48.18,365.15,38.93,364.89z"
			/>
		<path class="st1" d="M254.11,503.25h-40.47l-6.55-28.65h-41.11l-6.81,28.65h-39.7l45.48-171.5h43.68L254.11,503.25z
			 M199.64,443.77c-5.83-25.52-10.19-49.8-13.1-72.84h-0.51c-3.08,23.72-7.41,48-12.98,72.84H199.64z"/>
		<path class="st1" d="M273.76,331.75h36.36c25.18,0,44.32,7.17,57.43,21.52c13.1,14.35,19.66,35.31,19.66,62.89
			c0,20.9-3.23,37.77-9.7,50.62c-6.47,12.85-15.5,22.14-27.11,27.88c-11.61,5.74-24.43,8.61-38.48,8.61h-38.16V331.75z
			 M312.69,368.23v98.41c11.82-1.03,20.17-5.2,25.05-12.53c4.88-7.32,7.32-19.38,7.32-36.16c0-9.93-0.86-18.35-2.57-25.24
			c-1.71-6.89-4.26-12.2-7.64-15.93c-3.38-3.73-6.68-6.02-9.89-6.87C321.75,369.05,317.66,368.49,312.69,368.23z"/>
		<path class="st1" d="M414.82,331.75h38.93v171.5h-38.93V331.75z"/>
		<path class="st1" d="M547.66,507.49c-20.73,0-36.53-7.94-47.4-23.83c-10.88-15.89-16.32-38.82-16.32-68.8
			c0-27.66,5.46-49.22,16.38-64.68c10.92-15.46,26.14-23.19,45.67-23.19c20.81,0,36.72,7.75,47.73,23.25
			c11,15.5,16.51,37.64,16.51,66.42s-5.42,51.11-16.25,67C583.14,499.55,567.7,507.49,547.66,507.49z M546.25,365.92
			c-14.05,0-21.07,16.49-21.07,49.46c0,21.24,1.78,35.42,5.33,42.52c3.55,7.11,8.71,10.66,15.48,10.66
			c7.28,0,12.87-3.55,16.77-10.66c3.9-7.11,5.85-21.02,5.85-41.75C568.6,382.66,561.15,365.92,546.25,365.92z"/>
	</g>
</g>
</svg>
